<?xml version="1.0" encoding="utf-8"?>
<!-- Generator: Adobe Illustrator 16.2.0, SVG Export Plug-In . SVG Version: 6.00 Build 0)  -->
<!DOCTYPE svg PUBLIC "-//W3C//DTD SVG 1.1//EN" "http://www.w3.org/Graphics/SVG/1.1/DTD/svg11.dtd">
<svg version="1.1" id="Layer_1" xmlns="http://www.w3.org/2000/svg" xmlns:xlink="http://www.w3.org/1999/xlink" x="0px" y="0px"
	 width="369.542px" height="116.435px" viewBox="0 0 369.542 116.435" enable-background="new 0 0 369.542 116.435"
	 xml:space="preserve">
<path fill="#A4DAD2" d="M91.125,80.076c-50.697,0-89.845-23.155-90.235-23.389c-0.869-0.521-1.15-1.647-0.628-2.516
	c0.521-0.869,1.647-1.15,2.516-0.629c0.381,0.229,38.705,22.866,88.347,22.866c1.013,0,1.834,0.82,1.834,1.834
	C92.959,79.255,92.139,80.076,91.125,80.076z"/>
<path fill="#A4DAD2" d="M97.017,98.403c-0.466,0-0.931-0.176-1.289-0.528C80.18,82.521,72.137,59.922,74.738,38.898
	c1.816-14.684,8.628-26.509,18.688-32.443c31.92-18.831,50.162,9.503,50.342,9.792c14.573,24.705,2.247,41.76-3.728,47.948
	c-0.703,0.729-1.864,0.75-2.593,0.045c-0.729-0.703-0.75-1.864-0.046-2.593c6.697-6.937,16.022-21.811,3.232-43.495
	c-0.636-1.009-16.542-25.528-45.344-8.537c-9.071,5.351-15.235,16.188-16.911,29.733c-2.464,19.919,5.171,41.345,19.927,55.917
	c0.721,0.712,0.728,1.873,0.017,2.594C97.963,98.222,97.49,98.403,97.017,98.403z"/>
<path d="M143.956,51.952c-3.149,0-5.75,1.047-7.798,3.138c-0.124,0.127-0.233,0.264-0.35,0.396c0.734-0.219,1.496-0.371,2.299-0.371
	c4.47,0,8.097,3.625,8.097,8.098s-3.627,8.101-8.097,8.101c-0.804,0-1.563-0.153-2.295-0.37c0.117,0.129,0.222,0.264,0.346,0.39
	c2.048,2.094,4.649,3.14,7.798,3.14c3.151,0,5.75-1.046,7.799-3.14c2.048-2.092,3.074-4.798,3.074-8.123
	c0-3.32-1.026-6.028-3.074-8.121C149.705,52.999,147.107,51.952,143.956,51.952"/>
<path d="M156.901,75.8c-3.451,3.43-7.769,5.146-12.945,5.146c-4.194,0-7.811-1.146-10.872-3.397v15.951h-7.247V46.514h7.247v2.362
	c3.061-2.25,6.678-3.396,10.872-3.396c5.176,0,9.494,1.714,12.945,5.144c3.452,3.43,5.174,7.626,5.174,12.586
	C162.075,68.173,160.353,72.369,156.901,75.8 M365.274,9.99H116.54c0,0-4.27,0-5.851,3.953L92.506,59.258c0,0-1.58,3.955,0,7.908
	l18.183,45.317c0,0,1.582,3.951,5.851,3.951h248.734c0,0,4.269,0,4.269-4.258V14.249C369.542,14.249,369.542,9.99,365.274,9.99"/>
<path fill="#FFFFFF" d="M151.754,71.334c-2.049,2.094-4.647,3.14-7.799,3.14c-3.149,0-5.75-1.046-7.798-3.14
	c-0.124-0.125-0.229-0.261-0.346-0.39c-1.811-2.037-2.728-4.607-2.728-7.732c0-3.119,0.916-5.689,2.724-7.726
	c0.117-0.132,0.226-0.269,0.35-0.396c2.048-2.091,4.649-3.138,7.798-3.138c3.151,0,5.75,1.047,7.799,3.138
	c2.048,2.093,3.074,4.8,3.074,8.122C154.829,66.536,153.802,69.242,151.754,71.334 M143.956,45.48
	c-4.194,0-7.811,1.146-10.872,3.396v-2.361h-7.247v46.982h7.247V77.548c3.061,2.251,6.678,3.398,10.872,3.398
	c5.176,0,9.494-1.717,12.945-5.146c3.452-3.431,5.174-7.627,5.174-12.588c0-4.96-1.722-9.157-5.174-12.587
	C153.45,47.195,149.132,45.48,143.956,45.48"/>
<g>
	<rect x="339.356" y="32.927" fill="#FFFFFF" width="7.245" height="48.018"/>
	<path fill="#FFFFFF" d="M318.744,68.132c0,2.199-0.861,3.946-2.59,5.242c-1.725,1.292-3.741,1.939-6.048,1.939
		c-2.313,0-4.11-0.441-5.406-1.327c-1.295-0.883-1.942-2.168-1.942-3.85c0-3.277,2.61-4.917,7.833-4.917h8.153V68.132z
		 M322.14,49.072c-2.565-2.048-5.877-3.074-9.934-3.074c-5.308,0-10.052,1.661-14.235,4.982l3.234,4.529
		c3.452-2.33,6.772-3.495,9.969-3.495c5.089,0,7.634,2.289,7.634,6.862v1.294h-9.383c-4.272,0-7.66,0.842-10.16,2.524
		c-2.504,1.68-3.752,4.217-3.752,7.604c0,3.389,1.173,6.094,3.524,8.121c2.351,2.029,5.316,3.043,8.899,3.043
		c4.789,0,8.607-1.703,11.454-5.112v4.595h6.604V58.747C325.995,54.346,324.708,51.121,322.14,49.072"/>
	<polygon fill="#FFFFFF" points="265.062,71.171 270.305,65.865 280.534,80.945 289.333,80.945 275.29,60.171 288.363,46.514 
		279.042,46.514 265.062,61.142 265.062,32.927 257.816,32.927 257.816,80.945 265.062,80.945 	"/>
	<path fill="#FFFFFF" d="M219.606,61.206c0-2.759,1.053-4.951,3.17-6.57c2.113-1.616,4.496-2.424,7.15-2.424
		c2.653,0,4.889,0.775,6.699,2.328c1.81,1.555,2.717,3.778,2.717,6.667H219.606z M246.591,61.918c0-4.96-1.644-8.856-4.919-11.681
		c-3.279-2.827-7.26-4.24-11.94-4.24s-8.749,1.596-12.198,4.79c-3.454,3.194-5.177,7.498-5.177,12.908
		c0,5.416,1.691,9.732,5.079,12.946c3.386,3.213,7.496,4.821,12.328,4.821c5.954,0,10.786-1.922,14.496-5.76l-4.141-4.532
		c-2.244,2.721-5.526,4.078-9.839,4.078c-2.717,0-5.134-0.766-7.247-2.296c-2.113-1.532-3.258-3.55-3.428-6.052h26.985V61.918z"/>
	<path fill="#FFFFFF" d="M176.344,61.206c0-2.759,1.054-4.951,3.169-6.57c2.113-1.616,4.498-2.424,7.153-2.424
		c2.655,0,4.886,0.775,6.698,2.328c1.811,1.555,2.719,3.778,2.719,6.667H176.344z M203.331,61.918c0-4.96-1.642-8.856-4.919-11.681
		c-3.28-2.827-7.258-4.24-11.939-4.24c-4.68,0-8.748,1.596-12.199,4.79c-3.452,3.194-5.176,7.498-5.176,12.908
		c0,5.416,1.691,9.732,5.081,12.946c3.383,3.213,7.494,4.821,12.327,4.821c5.956,0,10.784-1.922,14.498-5.76l-4.146-4.532
		c-2.24,2.721-5.519,4.078-9.833,4.078c-2.719,0-5.134-0.766-7.25-2.296c-2.112-1.532-3.258-3.55-3.429-6.052h26.986V61.918z"/>
</g>
<path fill="none" stroke="#F5866C" stroke-width="3" stroke-linecap="round" stroke-linejoin="round" stroke-miterlimit="10" d="
	M170.45,44.471"/>
<path fill="#A1D9D4" d="M91.125,80.076c-0.99,0-1.806-0.789-1.832-1.786c-0.027-1.013,0.773-1.854,1.785-1.882
	c21.219-0.556,37.669-5.799,46.323-14.762c0.704-0.729,1.865-0.749,2.594-0.046c0.729,0.704,0.749,1.865,0.045,2.594
	c-9.326,9.66-26.68,15.3-48.866,15.881C91.158,80.075,91.141,80.076,91.125,80.076z"/>
</svg>
