<?xml version="1.0" encoding="UTF-8"?>
<svg width="1000px" height="241px" viewBox="0 0 1000 241" version="1.1" xmlns="http://www.w3.org/2000/svg" xmlns:xlink="http://www.w3.org/1999/xlink">
    <!-- Generator: Sketch 41.2 (35397) - http://www.bohemiancoding.com/sketch -->
    <title>Group 3</title>
    <desc>Created with Sketch.</desc>
    <defs></defs>
    <g id="Page-1" stroke="none" stroke-width="1" fill="none" fill-rule="evenodd">
        <g id="Group-3" fill="#008FCC">
            <path d="M154.728916,103.05182 C154.728916,95.0087112 153.263052,87.4018316 150.331325,80.2291713 C147.401606,73.0565111 143.329317,66.8065669 138.120482,61.4813491 C132.909639,56.1561313 126.666667,51.9446058 119.393574,48.8467724 C112.120482,45.748939 104.086345,44.2010275 95.2951807,44.2010275 C86.502008,44.2010275 78.4678715,45.7770829 71.1947791,48.9291937 C63.9216867,52.0813044 57.624498,56.3471074 52.3052209,61.7245924 C46.9859438,67.1040876 42.8594378,73.3821756 39.9297189,80.5528256 C36.997992,87.7274961 35.5341365,95.3343757 35.5341365,103.375475 C35.5341365,111.418584 36.997992,119.027474 39.9297189,126.198124 C42.8594378,133.370784 46.9317269,139.620728 52.1425703,144.945946 C57.3534137,150.271164 63.5943775,154.482689 70.8694779,157.578512 C78.1425703,160.676346 86.1746988,162.224257 94.9678715,162.224257 C103.761044,162.224257 111.793173,160.650212 119.066265,157.498101 C126.341365,154.345991 132.636546,150.082198 137.957831,144.700692 C143.2751,139.321197 147.401606,133.045119 150.331325,125.872459 C153.263052,118.699799 154.728916,111.092919 154.728916,103.05182 Z M13.2911647,0.113692205 L518.435743,0.113692205 C525.47992,0.113692205 531.240964,5.10721465 531.240964,11.2144293 L531.240964,195.212866 C531.240964,201.32008 525.47992,206.313603 518.435743,206.313603 L199.018072,206.313603 L199.018072,123.590797 L221.654618,123.590797 C227.949799,123.590797 233.865462,122.748492 239.403614,121.063882 C244.939759,119.379272 249.769076,116.906634 253.893574,113.645968 C258.022088,110.387313 261.277108,106.310476 263.664659,101.419477 C266.054217,96.5304892 267.248996,90.8796069 267.248996,84.4668305 C267.248996,78.5988385 266.242972,73.3278981 264.23494,68.6540094 C262.226908,63.9801206 259.349398,59.9595711 255.604418,56.5903507 C251.859438,53.2211302 247.301205,50.6419477 241.927711,48.8467724 C236.554217,47.0536073 230.554217,46.1570248 223.933735,46.1570248 L178.98996,46.1570248 L178.98996,240.576725 L13.2911647,206.313603 C6.3935743,204.886308 0.485943775,201.32008 0.485943775,195.212866 L0.485943775,11.2144293 C0.485943775,5.10721465 6.24698795,0.113692205 13.2911647,0.113692205 Z M133.722892,103.375475 C133.722892,108.917802 132.773092,114.162609 130.873494,119.107885 C128.973896,124.05115 126.341365,128.345097 122.975904,131.985705 C119.610442,135.626312 115.566265,138.507036 110.845382,140.625866 C106.12249,142.744695 100.937751,143.80411 95.2951807,143.80411 C89.6506024,143.80411 84.437751,142.716551 79.6606426,140.545455 C74.8855422,138.372348 70.7871486,135.437346 67.3674699,131.740451 C63.9477912,128.045566 61.2891566,123.727496 59.3875502,118.78222 C57.4899598,113.836944 56.5401606,108.592138 56.5401606,103.05182 C56.5401606,97.5074827 57.4899598,92.2646862 59.3875502,87.3194103 C61.2891566,82.3761447 63.9216867,78.0821979 67.2851406,74.4415904 C70.6526104,70.7989725 74.6947791,67.9202591 79.4176707,65.8014295 C84.1385542,63.6805897 89.3232932,62.6211749 94.9678715,62.6211749 C100.614458,62.6211749 105.823293,63.7087335 110.600402,65.8818405 C115.375502,68.0569578 119.473896,70.9899486 122.893574,74.6848336 C126.313253,78.3797186 128.973896,82.7018092 130.873494,87.6450748 C132.773092,92.5903507 133.722892,97.8351575 133.722892,103.375475 Z M246.893574,84.9553272 C246.893574,91.150994 244.694779,96.1224034 240.297189,99.8715658 C235.901606,103.620728 229.905622,105.496314 222.305221,105.496314 L199.018072,105.496314 L199.018072,64.4163502 L222.305221,64.4163502 C229.795181,64.4163502 235.767068,66.127094 240.216867,69.5526022 C244.666667,72.9740898 246.893574,78.1083315 246.893574,84.9553272 Z M372.277108,46.1570248 L287.76506,46.1570248 L287.76506,160.27027 L373.090361,160.27027 L373.090361,142.33862 L307.793173,142.33862 L307.793173,111.689971 L364.949799,111.689971 L364.949799,93.7583203 L307.793173,93.7583203 L307.793173,64.0886755 L372.277108,64.0886755 L372.277108,46.1570248 Z M476.491968,125.058298 L415.427711,46.1570248 L396.865462,46.1570248 L396.865462,160.27027 L416.568273,160.27027 L416.568273,79.0873353 L479.423695,160.27027 L496.194779,160.27027 L496.194779,46.1570248 L476.491968,46.1570248 L476.491968,125.058298 L476.491968,125.058298 Z" id="Fill-1"></path>
            <path d="M663.690763,142.169757 L655.222892,133.85727 C649.795181,139.073933 644.259036,143.120616 638.614458,146.00134 C632.96988,148.882064 626.238956,150.321421 618.421687,150.321421 C612.126506,150.321421 606.291165,149.099174 600.917671,146.652669 C595.544177,144.208175 590.87751,140.865088 586.913655,136.627429 C582.951807,132.38977 579.85743,127.390217 577.63253,121.63078 C575.407631,115.869332 574.295181,109.675676 574.295181,103.04579 C574.295181,96.4179138 575.407631,90.2503909 577.63253,84.5452312 C579.85743,78.8380612 582.951807,73.8666518 586.913655,69.6269824 C590.87751,65.3893232 595.544177,62.0743802 600.917671,59.6841635 C606.291165,57.2919366 612.126506,56.0978334 618.421687,56.0978334 C626.238956,56.0978334 632.941767,57.5653339 638.532129,60.4983248 C644.124498,63.4333259 649.361446,67.1824883 654.24498,71.7458119 L663.038153,62.2914898 C660.216867,59.5756087 657.287149,57.1029707 654.24498,54.8735761 C651.206827,52.6461916 647.895582,50.7444717 644.313253,49.1684164 C640.730924,47.592361 636.849398,46.3701139 632.670683,45.5016752 C628.48996,44.6312263 623.795181,44.1970069 618.584337,44.1970069 C610.2249,44.1970069 602.518072,45.7449185 595.463855,48.8427518 C588.407631,51.9405852 582.327309,56.1782444 577.2249,61.5577396 C572.12249,66.9372348 568.134538,73.2133125 565.257028,80.3859727 C562.379518,87.558633 560.941767,95.2218003 560.941767,103.371454 C560.941767,111.629663 562.379518,119.349118 565.257028,126.519768 C568.134538,133.694438 572.12249,139.916239 577.2249,145.185169 C582.327309,150.456109 588.353414,154.613357 595.301205,157.656913 C602.246988,160.700469 609.84739,162.220237 618.096386,162.220237 C623.309237,162.220237 628.03012,161.73375 632.263052,160.754746 C636.495984,159.775743 640.459839,158.418807 644.150602,156.677909 C647.841365,154.939022 651.289157,152.848336 654.48996,150.401832 C657.692771,147.957338 660.759036,145.213312 663.690763,142.169757 Z M686.162651,160.264239 L763.182731,160.264239 L763.182731,148.365423 L699.026104,148.365423 L699.026104,46.1530042 L686.162651,46.1530042 L686.162651,160.264239 Z M876.843373,46.1530042 L863.977912,46.1530042 L863.977912,112.502122 C863.977912,125 860.883534,134.400045 854.696787,140.702256 C848.508032,147.006478 840.150602,150.158588 829.620482,150.158588 C818.654618,150.158588 810.106426,146.843645 803.973896,140.213759 C797.839357,133.585883 794.773092,124.075274 794.773092,111.68595 L794.773092,46.1530042 L781.909639,46.1530042 L781.909639,112.502122 C781.909639,120.543221 783.050201,127.661604 785.329317,133.85727 C787.608434,140.050927 790.837349,145.239446 795.016064,149.424838 C799.196787,153.60822 804.190763,156.760331 809.997992,158.87916 C815.807229,160.99799 822.238956,162.057405 829.295181,162.057405 C836.459839,162.057405 842.945783,160.99799 848.753012,158.87916 C854.560241,156.760331 859.554217,153.582086 863.73494,149.344427 C867.913655,145.104758 871.144578,139.833817 873.423695,133.531606 C875.702811,127.227384 876.843373,119.891892 876.843373,111.523118 L876.843373,46.1530042 Z M955.817269,46.1530042 L907.293173,46.1530042 L907.293173,160.264239 L957.933735,160.264239 C964.12249,160.264239 969.76506,159.558633 974.86747,158.14541 C979.96988,156.732187 984.341365,154.695778 987.975904,152.032164 C991.614458,149.370561 994.409639,146.083761 996.363454,142.169757 C998.315261,138.257762 999.293173,133.85727 999.293173,128.964262 C999.293173,125.054277 998.64257,121.576502 997.341365,118.532946 C996.038153,115.48939 994.299197,112.882064 992.130522,110.706947 C989.959839,108.53384 987.379518,106.660264 984.395582,105.084208 C981.409639,103.508153 978.23494,102.231628 974.86747,101.254635 C977.148594,100.275631 979.34739,99.053384 981.463855,97.5838731 C983.580321,96.1183828 985.506024,94.2990842 987.24498,92.1239669 C988.981928,89.95086 990.365462,87.4520885 991.395582,84.6256422 C992.429719,81.7991959 992.943775,78.4842528 992.943775,74.680813 C992.943775,70.3325888 992.076305,66.3944606 990.339357,62.8624079 C988.600402,59.3303551 986.106426,56.3430869 982.849398,53.8965825 C979.592369,51.4520885 975.682731,49.5483583 971.124498,48.1914228 C966.564257,46.8324771 961.461847,46.1530042 955.817269,46.1530042 Z M953.700803,97.0149654 L919.991968,97.0149654 L919.991968,57.7281662 L954.678715,57.7281662 C962.819277,57.7281662 969.062249,59.4127764 973.403614,62.7799866 C977.746988,66.1512173 979.917671,70.714541 979.917671,76.4739781 C979.917671,83.212419 977.473896,88.3205271 972.590361,91.7983024 C967.704819,95.2740675 961.407631,97.0149654 953.700803,97.0149654 Z M958.261044,148.691088 L919.991968,148.691088 L919.991968,108.425285 L955.97992,108.425285 C965.967871,108.425285 973.512048,110.138039 978.614458,113.561537 C983.716867,116.985035 986.267068,121.845879 986.267068,128.150101 C986.267068,134.669421 983.771084,139.725262 978.777108,143.311593 C973.783133,146.897923 966.945783,148.691088 958.261044,148.691088 L958.261044,148.691088 Z" id="Fill-2"></path>
        </g>
    </g>
</svg>