<?xml version="1.0" encoding="UTF-8"?>
<svg width="408px" height="408px" viewBox="0 0 408 408" version="1.1" xmlns="http://www.w3.org/2000/svg" xmlns:xlink="http://www.w3.org/1999/xlink">
    <!-- Generator: Sketch 41.2 (35397) - http://www.bohemiancoding.com/sketch -->
    <title>Slice</title>
    <desc>Created with Sketch.</desc>
    <defs></defs>
    <g id="Page-1" stroke="none" stroke-width="1" fill="none" fill-rule="evenodd">
        <polygon id="Path" fill="#5386E4" points="187.060547 158.814453 187.587891 158.814453 203.056641 75.8457031 233.115234 75.8457031 203.759766 203.814453 175.810547 203.814453 154.277344 124.800781 153.75 124.800781 132.392578 203.814453 104.443359 203.814453 75 75.8457031 105.146484 75.8457031 120.615234 158.902344 121.142578 158.990234 142.851562 75.8457031 165.263672 75.8457031"></polygon>
        <polygon id="Path" fill="#5386E4" points="339.140234 203.814453 309.521093 203.814453 309.521093 152.310547 262.148046 152.310547 262.148046 203.814453 232.441015 203.814453 232.441015 75.8457031 262.148046 75.8457031 262.148046 129.458984 309.521093 129.458984 309.521093 75.8457031 339.140234 75.8457031"></polygon>
        <path d="M151.728516,307.095703 L113.671875,307.095703 L106.289062,331.96875 L75,331.96875 L116.748047,204 L132.65625,204 L132.65625,204.087891 L132.744141,204 L148.652344,204 L190.488281,331.96875 L159.199219,331.96875 L151.728516,307.095703 Z M120.527344,284.244141 L144.873047,284.244141 L132.919922,244.517578 L132.392578,244.517578 L120.527344,284.244141 Z" id="Combined-Shape" fill="#5386E4"></path>
        <path d="M154.239536,288.670962 L154.063755,289.198306 C153.829378,303.788223 157.945548,314.847682 166.412387,322.377017 C174.879227,329.906351 186.876177,333.670962 202.403598,333.670962 C218.22399,333.670962 230.924058,328.837026 240.504184,319.169009 C250.08431,309.500992 254.874302,296.844869 254.874302,281.200259 L254.874302,254.481509 C254.874302,238.895494 250.26009,226.254019 241.031528,216.556704 C231.802966,206.85939 219.60094,202.010806 204.425083,202.010806 C188.194533,202.010806 175.640947,205.790065 166.76395,213.348697 C157.886952,220.907328 153.565707,231.893546 153.800083,246.307681 L154.063755,246.835025 L182.97977,246.835025 C182.97977,238.983423 184.649675,233.358479 187.989536,229.960025 C191.329396,226.56157 196.807857,224.862368 204.425083,224.862368 C211.104804,224.862368 216.231706,227.543006 219.805942,232.904361 C223.380179,238.265716 225.16727,245.399433 225.16727,254.305728 L225.16727,281.200259 C225.16727,290.165148 223.204399,297.34281 219.278598,302.733462 C215.352798,308.124114 209.727854,310.8194 202.403598,310.8194 C195.606689,310.8194 190.699512,309.120198 187.681919,305.721743 C184.664326,302.323289 183.155552,296.639752 183.155552,288.670962 L154.239536,288.670962 Z" id="Path" fill="#81A4E3" transform="translate(204.332670, 267.840884) rotate(41.000000) translate(-204.332670, -267.840884) "></path>
        <polygon id="Path" fill="#5386E4" points="274.96875 280.640625 266.707031 280.640625 266.707031 331.96875 237 331.96875 237 204 266.707031 204 266.707031 254.097656 272.859375 254.097656 301.775391 204 339.128906 204 298.875 262.183594 342.556641 331.96875 304.412109 331.96875"></polygon>
    </g>
</svg>