<?xml version="1.0" encoding="UTF-8"?>
<svg width="585px" height="132px" viewBox="0 0 585 132" version="1.1" xmlns="http://www.w3.org/2000/svg" xmlns:xlink="http://www.w3.org/1999/xlink">
    <!-- Generator: Sketch 41.2 (35397) - http://www.bohemiancoding.com/sketch -->
    <title>WHACK</title>
    <desc>Created with Sketch.</desc>
    <defs></defs>
    <g id="Page-1" stroke="none" stroke-width="1" fill="none" fill-rule="evenodd">
        <path d="M112.060547,84.8144531 L112.587891,84.8144531 L128.056641,1.84570312 L158.115234,1.84570312 L128.759766,129.814453 L100.810547,129.814453 L79.2773438,50.8007812 L78.75,50.8007812 L57.3925781,129.814453 L29.4433594,129.814453 L0,1.84570312 L30.1464844,1.84570312 L45.6152344,84.9023438 L46.1425781,84.9902344 L67.8515625,1.84570312 L90.2636719,1.84570312 L112.060547,84.8144531 Z M264.140234,129.814453 L234.521093,129.814453 L234.521093,78.3105469 L187.148046,78.3105469 L187.148046,129.814453 L157.441015,129.814453 L157.441015,1.84570312 L187.148046,1.84570312 L187.148046,55.4589844 L234.521093,55.4589844 L234.521093,1.84570312 L264.140234,1.84570312 L264.140234,129.814453 Z M340.985546,104.941406 L302.928905,104.941406 L295.546093,129.814453 L264.25703,129.814453 L306.005077,1.84570312 L321.91328,1.84570312 L321.91328,1.93359375 L322.001171,1.84570312 L337.909374,1.84570312 L379.745312,129.814453 L348.456249,129.814453 L340.985546,104.941406 Z M309.784374,82.0898438 L334.130077,82.0898438 L322.176952,42.3632812 L321.649609,42.3632812 L309.784374,82.0898438 Z M373.894589,86.6601562 L373.718808,87.1875 C373.484432,101.777417 377.600602,112.836876 386.067441,120.366211 C394.53428,127.895545 406.53123,131.660156 422.058652,131.660156 C437.879043,131.660156 450.579112,126.82622 460.159238,117.158203 C469.739364,107.490186 474.529355,94.8340626 474.529355,79.1894531 L474.529355,52.4707031 C474.529355,36.8846877 469.915143,24.2432125 460.686581,14.5458984 C451.45802,4.84858433 439.255993,0 424.080136,0 C407.849586,0 395.296001,3.77925908 386.419003,11.3378906 C377.542006,18.8965222 373.22076,29.8827404 373.455136,44.296875 L373.718808,44.8242188 L402.634824,44.8242188 C402.634824,36.972617 404.304729,31.3476732 407.644589,27.9492188 C410.98445,24.5507643 416.462911,22.8515625 424.080136,22.8515625 C430.759857,22.8515625 435.886759,25.5321998 439.460996,30.8935547 C443.035232,36.2549096 444.822324,43.3886273 444.822324,52.2949219 L444.822324,79.1894531 C444.822324,88.1543417 442.859453,95.3320043 438.933652,100.722656 C435.007851,106.113308 429.382907,108.808594 422.058652,108.808594 C415.261743,108.808594 410.354565,107.109392 407.336972,103.710938 C404.319379,100.312483 402.810605,94.6289461 402.810605,86.6601562 L373.894589,86.6601562 Z M516.560936,78.4863281 L508.299217,78.4863281 L508.299217,129.814453 L478.592186,129.814453 L478.592186,1.84570312 L508.299217,1.84570312 L508.299217,51.9433594 L514.451561,51.9433594 L543.367577,1.84570312 L580.721092,1.84570312 L540.467186,60.0292969 L584.148827,129.814453 L546.004295,129.814453 L516.560936,78.4863281 Z" id="WHACK" fill="#5386E4"></path>
    </g>
</svg>