<?xml version="1.0" encoding="UTF-8"?>
<svg width="536px" height="179px" viewBox="0 0 536 179" version="1.1" xmlns="http://www.w3.org/2000/svg" xmlns:xlink="http://www.w3.org/1999/xlink">
    <!-- Generator: Sketch 43.2 (39069) - http://www.bohemiancoding.com/sketch -->
    <title>Slice</title>
    <desc>Created with Sketch.</desc>
    <defs></defs>
    <g id="Page-1" stroke="none" stroke-width="1" fill="none" fill-rule="evenodd">
        <path d="M139.338723,64.9511997 C137.472242,66.6136173 136.88276,67.4475985 137.044241,69.3476791 C137.2376,71.6228445 140.170711,74.9405051 140.170711,74.9405051 C140.170711,74.9405051 133.588384,73.3767386 132.50504,67.8927899 C131.71491,63.8931061 135.692714,62.194705 136.736116,59.6156269 C138.857269,54.3725667 133.231901,54.1702687 133.231901,54.1702687 C133.231901,54.1702687 135.465505,52.2375704 138.025672,53.0518312 C138.917983,53.3356307 139.338723,53.7964314 139.338723,53.7964314 C139.338723,53.7964314 137.464259,50.9757464 138.025672,47.538909 C138.44922,44.946045 140.845758,42.9677353 142.954963,42.5923537 C145.33033,42.1696027 147.419974,43.5283785 147.419974,43.5283785 C147.419974,43.5283785 140.612827,43.5586112 146.461012,50.438622 C152.309198,57.3186329 154.930414,60.2423486 154.128744,65.4275644 C152.930676,73.1766915 145.834917,74.9405041 145.834917,74.9405041 C145.834917,74.9405041 149.124637,72.3436779 149.428943,69.3476778 C149.733248,66.3516778 148.19541,64.9512001 148.19541,64.9512001 C148.19541,64.9512001 147.89254,66.2783921 146.461012,66.9379507 C145.029485,67.5975092 143.288161,67.4475985 143.288161,67.4475985 C143.288161,67.4475985 146.461012,64.4284089 145.834917,61.6887043 C145.208822,58.9489997 142.526669,57.003844 142.526669,57.003844 C142.526669,57.003844 143.839358,60.9426224 139.338723,64.9511997 Z" id="Path-1-Copy-6" fill="#0E1C36" transform="translate(143.335912, 58.725661) rotate(9.000000) translate(-143.335912, -58.725661) "></path>
        <path d="M62.984375,63.78125 C62.984375,63.8750005 62.9609377,64.2031222 62.9140625,64.765625 C62.8671873,65.3281278 62.6093773,65.9374967 62.140625,66.59375 C61.6718727,67.2500033 60.9101615,67.8359349 59.8554688,68.3515625 C58.800776,68.8671901 57.2656351,69.125 55.25,69.125 C52.5312364,69.125 50.4101639,68.9726578 48.8867188,68.6679688 C47.3632736,68.3632797 46.2382849,67.9414089 45.5117188,67.4023438 C44.7851526,66.8632786 44.3398446,66.2539096 44.1757812,65.5742188 C44.0117179,64.8945279 43.9296875,64.2031285 43.9296875,63.5 C43.9296875,56.5155901 45.6874824,50.5273687 49.203125,45.5351562 C52.7187676,40.5429438 57.652312,36.4531409 64.0039062,33.265625 C70.3555005,30.0781091 77.9726118,27.7343825 86.8554688,26.234375 C95.7383257,24.7343675 105.546821,23.984375 116.28125,23.984375 C123.406286,23.984375 130.871055,24.2187477 138.675781,24.6875 C146.480508,25.1562523 154.531209,25.9765566 162.828125,27.1484375 C165.218762,27.8046908 166.871089,28.7421814 167.785156,29.9609375 C168.699223,31.1796936 169.15625,32.4687432 169.15625,33.828125 C169.15625,34.7187545 169.027345,35.6562451 168.769531,36.640625 C168.511717,37.6250049 168.125003,38.5390583 167.609375,39.3828125 C167.093747,40.2265667 166.402348,40.9179661 165.535156,41.4570312 C164.667964,41.9960964 163.648443,42.265625 162.476562,42.265625 C162.289062,42.265625 162.089845,42.2539064 161.878906,42.2304688 C161.667968,42.2070311 161.445314,42.1718752 161.210938,42.125 C158.164047,41.6093724 154.859393,41.1523457 151.296875,40.7539062 C147.734357,40.3554668 144.007832,40.027345 140.117188,39.7695312 C136.226543,39.5117175 132.207052,39.3242193 128.058594,39.2070312 C123.910136,39.0898432 119.703146,39.03125 115.4375,39.03125 C114.171869,39.03125 112.660165,39.1015618 110.902344,39.2421875 C109.144522,39.3828132 107.445321,39.5468741 105.804688,39.734375 C103.929678,39.9218759 101.984385,40.1562486 99.96875,40.4375 C99.96875,40.9531276 99.9218755,41.5390592 99.828125,42.1953125 C99.7343745,42.8515658 99.5937509,43.7656191 99.40625,44.9375 C99.2187491,46.1093809 98.996095,47.6093659 98.7382812,49.4375 C98.4804675,51.2656341 98.1640644,53.6210793 97.7890625,56.5039062 C97.4140606,59.3867332 96.9921898,62.8671671 96.5234375,66.9453125 C96.0546852,71.0234579 95.5390653,75.8749719 94.9765625,81.5 L134,81.5 C135.125006,81.5 135.992184,81.722654 136.601562,82.1679688 C137.210941,82.6132835 137.656249,83.1757779 137.9375,83.8554688 C138.218751,84.5351596 138.382812,85.2617149 138.429688,86.0351562 C138.476563,86.8085976 138.5,87.5468715 138.5,88.25 C138.5,90.5000112 138.007817,92.1874944 137.023438,93.3125 C136.039058,94.4375056 135.031255,95 134,95 C133.671873,95 132.593759,95.0351559 130.765625,95.1054688 C128.937491,95.1757816 126.710951,95.257812 124.085938,95.3515625 C121.460924,95.445313 118.578141,95.5507807 115.4375,95.6679688 C112.296859,95.7851568 109.261733,95.8906245 106.332031,95.984375 C103.402329,96.0781255 100.730481,96.1601559 98.3164062,96.2304688 C95.9023317,96.3007816 94.0859436,96.3359375 92.8671875,96.3359375 C92.0234333,102.007841 91.0625054,107.468724 89.984375,112.71875 C88.9062446,117.968776 87.5586018,122.878883 85.9414062,127.449219 C84.3242107,132.019554 82.4140735,136.179669 80.2109375,139.929688 C78.0078015,143.679706 75.3828277,146.890612 72.3359375,149.5625 C69.2890473,152.234388 65.7734574,154.308586 61.7890625,155.785156 C57.8046676,157.261726 53.2344008,158 48.078125,158 C46.9999946,158 45.710945,157.929688 44.2109375,157.789062 C42.71093,157.648437 41.1406332,157.414064 39.5,157.085938 C37.8593668,156.757811 36.2304768,156.324221 34.6132812,155.785156 C32.9960857,155.246091 31.5546938,154.578129 30.2890625,153.78125 C29.0234312,152.984371 27.9921915,152.058599 27.1953125,151.003906 C26.3984335,149.949213 26,148.742194 26,147.382812 C26,146.679684 26.1523422,145.753912 26.4570312,144.605469 C26.7617203,143.457026 27.2304656,142.343755 27.8632812,141.265625 C28.4960969,140.187495 29.2929639,139.250004 30.2539062,138.453125 C31.2148486,137.656246 32.3749932,137.257812 33.734375,137.257812 C35.2812577,137.257812 36.9101477,137.515622 38.6210938,138.03125 C40.3320398,138.546878 42.1015534,139.121091 43.9296875,139.753906 C45.7578216,140.386722 47.6328029,140.960935 49.5546875,141.476562 C51.4765721,141.99219 53.4218652,142.25 55.390625,142.25 C56.9375077,142.25 58.4374927,141.628912 59.890625,140.386719 C61.3437573,139.144525 62.7148373,137.433605 64.0039062,135.253906 C65.2929752,133.074208 66.5234316,130.519546 67.6953125,127.589844 C68.8671934,124.660142 69.9687448,121.496111 71,118.097656 C72.0312552,114.699202 72.992183,111.148456 73.8828125,107.445312 C74.773442,103.742169 75.5937462,100.039081 76.34375,96.3359375 L67.6953125,96.3359375 C66.8984335,96.3359375 65.9140684,96.2421884 64.7421875,96.0546875 C63.5703066,95.8671866 62.4453179,95.5507835 61.3671875,95.1054688 C60.2890571,94.660154 59.3750038,94.0625037 58.625,93.3125 C57.8749962,92.5624963 57.5,91.6250056 57.5,90.5 C57.5,89.703121 57.7109354,88.9531285 58.1328125,88.25 C58.5546896,87.5468715 59.2578076,87.0312516 60.2421875,86.703125 L67.1328125,85.2265625 C69.1015723,84.8046854 70.8476486,84.4414078 72.3710938,84.1367188 L76.4140625,83.328125 C77.5859434,83.0937488 78.6640576,82.9062507 79.6484375,82.765625 C80.7734431,77.7499749 81.6640592,73.3906435 82.3203125,69.6875 C82.9765658,65.9843565 83.5390602,62.6211089 84.0078125,59.5976562 C84.4765648,56.5742036 84.9218729,53.7265759 85.34375,51.0546875 C85.7656271,48.3827991 86.2578097,45.54689 86.8203125,42.546875 C82.7421671,43.7187559 79.20314,45.1249918 76.203125,46.765625 C73.20311,48.4062582 70.7187598,50.1640531 68.75,52.0390625 C66.7812402,53.9140719 65.3281297,55.8593649 64.390625,57.875 C63.4531203,59.8906351 62.984375,61.8593654 62.984375,63.78125 Z" id="Path" fill="#0E1C36"></path>
        <path d="M165.5,134.023438 C163.812492,135.57032 161.714856,137.222647 159.207031,138.980469 C156.699206,140.73829 153.992202,142.355461 151.085938,143.832031 C148.179673,145.308601 145.214859,146.539058 142.191406,147.523438 C139.167954,148.507817 136.296889,149 133.578125,149 C131.140613,149 129.089852,148.66016 127.425781,147.980469 C125.76171,147.300778 124.414068,146.351569 123.382812,145.132813 C122.351557,143.914056 121.613283,142.42579 121.167969,140.667969 C120.722654,138.910147 120.5,136.976573 120.5,134.867188 C120.5,131.914048 120.83984,128.480488 121.519531,124.566406 C122.199222,120.652324 123.031245,116.597677 124.015625,112.402344 C125.000005,108.20701 126.042963,104.023458 127.144531,99.8515625 C127.655847,97.9150887 127.962488,96.7706607 128.418253,94.9755932 C128.944379,92.9034074 130.564412,81.5 132.745603,81.5 C134.926794,81.5 141.781245,81.5 142.859375,81.5 C144.828135,81.5 146.164059,81.8632776 146.867188,82.5898438 C147.570316,83.3164099 147.921875,84.2890564 147.921875,85.5078125 C147.921875,86.5390677 147.687502,88.027334 147.21875,89.9726563 C146.749998,91.9179785 146.164066,94.1210814 145.460938,96.5820313 C144.757809,99.0429811 144.007816,101.691392 143.210938,104.527344 C142.414059,107.363295 141.664066,110.199205 140.960938,113.035156 C140.257809,115.871108 139.671877,118.636705 139.203125,121.332031 C138.734373,124.027357 138.5,126.453114 138.5,128.609375 C138.5,130.718761 138.734373,132.394525 139.203125,133.636719 C139.671877,134.878912 140.632805,135.5 142.085938,135.5 C143.773446,135.5 145.648427,134.914068 147.710938,133.742188 C149.773448,132.570307 151.859364,131.152352 153.96875,129.488281 C156.078136,127.82421 158.140615,126.101571 160.15625,124.320313 C162.171885,122.539054 163.953117,121.015631 165.5,119.75 L165.5,134.023438 Z" id="Path" fill="#0E1C36"></path>
        <path d="M160.507812,134.304688 C160.507812,132.242177 160.624999,129.839857 160.859375,127.097656 C161.093751,124.355455 161.410154,121.460953 161.808594,118.414062 C162.207033,115.367172 162.675779,112.261735 163.214844,109.097656 C163.753909,105.933578 164.328122,102.921889 164.9375,100.0625 C165.546878,97.2031107 166.156247,94.578137 166.765625,92.1875 C167.375003,89.796863 167.984372,87.8281327 168.59375,86.28125 C168.968752,85.2499948 169.343748,84.4296905 169.71875,83.8203125 C170.093752,83.2109345 170.527341,82.7304705 171.019531,82.3789062 C171.511721,82.027342 172.12109,81.7929693 172.847656,81.6757812 C173.574222,81.5585932 174.476557,81.5 175.554688,81.5 C176.773444,81.5 177.722653,81.5585932 178.402344,81.6757812 C179.082035,81.7929693 179.585936,82.0742165 179.914062,82.5195312 C180.242189,82.964846 180.441406,83.6093708 180.511719,84.453125 C180.582032,85.2968792 180.617188,86.4453052 180.617188,87.8984375 L180.617188,94.1914062 C180.617188,96.6523561 180.664062,99.078113 180.757812,101.46875 L181.53125,101.46875 C182.468755,99.5937406 183.523432,97.4961054 184.695312,95.1757812 C185.867193,92.8554571 187.226555,90.6875101 188.773438,88.671875 C190.32032,86.6562399 192.078115,84.9570382 194.046875,83.5742188 C196.015635,82.1913993 198.28905,81.5 200.867188,81.5 C201.757817,81.5 202.624996,81.6523422 203.46875,81.9570312 C204.312504,82.2617203 205.050778,82.6953097 205.683594,83.2578125 C206.316409,83.8203153 206.820311,84.5117146 207.195312,85.3320312 C207.570314,86.1523479 207.757812,87.0781198 207.757812,88.109375 C207.757812,88.906254 207.640626,90.0195241 207.40625,91.4492188 C207.171874,92.8789134 206.914064,94.3788984 206.632812,95.9492188 C206.351561,97.5195391 206.093751,99.0429614 205.859375,100.519531 C205.624999,101.996101 205.507812,103.226558 205.507812,104.210938 C205.507812,105.898446 205.671873,107.304682 206,108.429688 C206.328127,109.554693 206.761716,110.457028 207.300781,111.136719 C207.839846,111.81641 208.449215,112.296874 209.128906,112.578125 C209.808597,112.859376 210.523434,113 211.273438,113 C213.382823,113 215.562489,112.531255 217.8125,111.59375 C220.062511,110.656245 222.124991,109.601568 224,108.429688 C226.203136,107.070306 228.359364,105.523446 230.46875,103.789062 L229.414062,120.242188 C228.195306,121.039066 226.812508,121.929683 225.265625,122.914062 C223.718742,123.898442 222.066415,124.824214 220.308594,125.691406 C218.550772,126.558598 216.722666,127.285153 214.824219,127.871094 C212.925772,128.457034 210.992197,128.75 209.023438,128.75 C205.507795,128.75 202.671886,128.035163 200.515625,126.605469 C198.359364,125.175774 196.648444,123.300793 195.382812,120.980469 C194.117181,118.660145 193.179691,116.058608 192.570312,113.175781 C191.960934,110.292954 191.468752,107.375015 191.09375,104.421875 L189.96875,104.421875 L177.382812,139.507812 C176.726559,141.335947 176.105472,142.84765 175.519531,144.042969 C174.933591,145.238287 174.335941,146.210934 173.726562,146.960938 C173.117184,147.710941 172.460941,148.23828 171.757812,148.542969 C171.054684,148.847658 170.281254,149 169.4375,149 C167.515615,149 165.968756,148.589848 164.796875,147.769531 C163.624994,146.949215 162.722659,145.847663 162.089844,144.464844 C161.457028,143.082024 161.035157,141.511728 160.824219,139.753906 C160.61328,137.996085 160.507812,136.179697 160.507812,134.304688 Z" id="Path" fill="#0E1C36"></path>
        <path d="M245.023438,149 C240.617165,149 236.761735,148.203133 233.457031,146.609375 C230.152327,145.015617 227.398449,142.871107 225.195312,140.175781 C222.992176,137.480455 221.339849,134.363299 220.238281,130.824219 C219.136713,127.285139 218.585938,123.570332 218.585938,119.679688 C218.585938,117.054674 218.843747,114.277358 219.359375,111.347656 C219.875003,108.417954 220.660151,105.546889 221.714844,102.734375 C222.769537,99.9218609 224.093742,97.238294 225.6875,94.6835938 C227.281258,92.1288935 229.144521,89.878916 231.277344,87.9335938 C233.410167,85.9882715 235.800768,84.441412 238.449219,83.2929688 C241.097669,82.1445255 244.039046,81.5703125 247.273438,81.5703125 C249.898451,81.5703125 252.335926,81.9921833 254.585938,82.8359375 C256.835949,83.6796917 258.79296,84.8632736 260.457031,86.3867188 C262.121102,87.9101639 263.42187,89.7499892 264.359375,91.90625 C265.29688,94.0625108 265.765625,96.4765491 265.765625,99.1484375 C265.765625,102.054702 265.050788,104.960923 263.621094,107.867188 C262.191399,110.773452 260.21095,113.515612 257.679688,116.09375 C255.148425,118.671888 252.136736,120.96874 248.644531,122.984375 C245.152326,125.00001 241.367208,126.570307 237.289062,127.695312 C237.992191,128.960944 238.68359,130.015621 239.363281,130.859375 C240.042972,131.703129 240.734371,132.359373 241.4375,132.828125 C242.140629,133.296877 242.878902,133.624999 243.652344,133.8125 C244.425785,134.000001 245.257808,134.09375 246.148438,134.09375 C248.960952,134.09375 251.925766,133.531256 255.042969,132.40625 C258.160172,131.281244 261.195298,129.875008 264.148438,128.1875 C267.101577,126.499992 269.890612,124.660166 272.515625,122.667969 C275.140638,120.675771 277.367178,118.789071 279.195312,117.007812 L288.265625,126.429688 C284.140604,130.695334 279.757836,134.468734 275.117188,137.75 C273.101552,139.156257 270.933605,140.539056 268.613281,141.898438 C266.292957,143.257819 263.855482,144.464838 261.300781,145.519531 C258.746081,146.574224 256.09767,147.417966 253.355469,148.050781 C250.613268,148.683597 247.835952,149 245.023438,149 Z M235.671875,115.953125 C237.359383,115.953125 239.199209,115.519536 241.191406,114.652344 C243.183604,113.785152 245.035148,112.671882 246.746094,111.3125 C248.45704,109.953118 249.898432,108.47657 251.070312,106.882812 C252.242193,105.289055 252.828125,103.742195 252.828125,102.242188 C252.828125,100.132802 252.44141,98.3984443 251.667969,97.0390625 C250.894527,95.6796807 249.945318,95 248.820312,95 C246.804677,95 245.082038,95.3749963 243.652344,96.125 C242.222649,96.8750037 241.027349,97.8476503 240.066406,99.0429688 C239.105464,100.238287 238.332034,101.597649 237.746094,103.121094 C237.160153,104.644539 236.714845,106.17968 236.410156,107.726562 C236.105467,109.273445 235.90625,110.77343 235.8125,112.226562 C235.71875,113.679695 235.671875,114.92187 235.671875,115.953125 Z" id="Combined-Shape" fill="#0E1C36"></path>
        <path d="M292.273438,149 C289.742175,149 287.38673,147.88673 285.207031,145.660156 C283.027333,143.433583 281.128914,140.445331 279.511719,136.695312 C277.894523,132.945294 276.628911,128.597681 275.714844,123.652344 C274.800777,118.707007 274.34375,113.515652 274.34375,108.078125 C274.34375,103.906229 274.648434,99.3711182 275.257812,94.4726562 C275.867191,89.5741943 276.757807,84.5234635 277.929688,79.3203125 C279.101568,74.1171615 280.496086,68.8906513 282.113281,63.640625 C283.730477,58.3905987 285.558584,53.3515866 287.597656,48.5234375 C289.636729,43.6952884 291.851551,39.1836147 294.242188,34.9882812 C296.632824,30.7929478 299.140612,27.1367343 301.765625,24.0195312 C304.390638,20.9023282 307.132798,18.4531339 309.992188,16.671875 C312.851577,14.8906161 315.757798,14 318.710938,14 C320.726573,14 322.390618,14.4570267 323.703125,15.3710938 C325.015632,16.2851608 326.046871,17.49218 326.796875,18.9921875 C327.546879,20.492195 328.074217,22.1913968 328.378906,24.0898438 C328.683595,25.9882907 328.835938,27.9218652 328.835938,29.890625 C328.835938,34.296897 328.332036,38.7851334 327.324219,43.3554688 C326.316401,47.9258041 324.95704,52.5195082 323.246094,57.1367188 C321.535148,61.7539293 319.554699,66.3827893 317.304688,71.0234375 C315.054676,75.6640857 312.71095,80.2695084 310.273438,84.8398438 C307.835925,89.4101791 305.386731,93.9101341 302.925781,98.3398438 C300.464831,102.769553 298.156261,107.093729 296,111.3125 C295.765624,111.781252 295.519533,112.390621 295.261719,113.140625 C295.003905,113.890629 294.757814,114.699214 294.523438,115.566406 C294.289061,116.433598 294.054689,117.35937 293.820312,118.34375 C293.585936,119.32813 293.398438,120.289058 293.257812,121.226562 L293.257812,122.210938 C293.257812,123.429694 293.386717,124.613276 293.644531,125.761719 C293.902345,126.910162 294.218748,127.941402 294.59375,128.855469 C294.968752,129.769536 295.367185,130.496091 295.789062,131.035156 C296.21094,131.574221 296.609373,131.84375 296.984375,131.84375 C297.875004,131.84375 298.894526,131.656252 300.042969,131.28125 C301.191412,130.906248 302.41015,130.402347 303.699219,129.769531 C304.988288,129.136716 306.312493,128.41016 307.671875,127.589844 C309.031257,126.769527 310.343744,125.937504 311.609375,125.09375 C314.562515,123.12499 317.656234,120.851575 320.890625,118.273438 L326.65625,133.039062 C322.484354,136.039078 318.359395,138.710926 314.28125,141.054688 C312.499991,142.039067 310.660166,143.011714 308.761719,143.972656 C306.863272,144.933599 304.953135,145.789059 303.03125,146.539062 C301.109365,147.289066 299.234384,147.886717 297.40625,148.332031 C295.578116,148.777346 293.867195,149 292.273438,149 Z M292.34375,92.75 C294.453136,88.9999813 296.691394,84.7812734 299.058594,80.09375 C301.425793,75.4062266 303.664052,70.5781498 305.773438,65.609375 C307.882823,60.6406002 309.71093,55.6836185 311.257812,50.7382812 C312.804695,45.792944 313.78906,41.1875213 314.210938,36.921875 C314.210938,35.5624932 314.175782,34.4023486 314.105469,33.4414062 C314.035156,32.4804639 313.812502,32 313.4375,32 C312.078118,32 310.613289,32.8788975 309.042969,34.6367188 C307.472648,36.39454 305.902352,38.7734225 304.332031,41.7734375 C302.761711,44.7734525 301.261726,48.2656051 299.832031,52.25 C298.402337,56.2343949 297.125006,60.47654 296,64.9765625 C294.874994,69.476585 293.984378,74.105445 293.328125,78.8632812 C292.671872,83.6211175 292.34375,88.2499775 292.34375,92.75 Z" id="Combined-Shape" fill="#0E1C36"></path>
        <path d="M390.570312,131.773438 C389.492182,133.273445 388.05079,135.03124 386.246094,137.046875 C384.441397,139.06251 382.414074,140.984366 380.164062,142.8125 C377.914051,144.640634 375.500013,146.187494 372.921875,147.453125 C370.343737,148.718756 367.765638,149.351562 365.1875,149.351562 C362.093735,149.351562 359.515635,148.355479 357.453125,146.363281 C355.390615,144.371084 353.609382,141.476581 352.109375,137.679688 C350.984369,138.992194 349.601571,140.328118 347.960938,141.6875 C346.320304,143.046882 344.527353,144.277338 342.582031,145.378906 C340.636709,146.480474 338.609386,147.382809 336.5,148.085938 C334.390614,148.789066 332.281261,149.140625 330.171875,149.140625 C327.921864,149.140625 325.730479,148.683598 323.597656,147.769531 C321.464833,146.855464 319.578133,145.542977 317.9375,143.832031 C316.296867,142.121085 314.98438,140.035169 314,137.574219 C313.01562,135.113269 312.523438,132.335953 312.523438,129.242188 C312.523438,125.726545 313.01562,122.117206 314,118.414062 C314.98438,114.710919 316.343741,111.089861 318.078125,107.550781 C319.812509,104.011701 321.863269,100.671891 324.230469,97.53125 C326.597668,94.3906093 329.187486,91.6484492 332,89.3046875 C334.812514,86.9609258 337.777328,85.0976632 340.894531,83.7148438 C344.011734,82.3320243 347.187484,81.640625 350.421875,81.640625 C351.500005,81.640625 352.343747,81.8515604 352.953125,82.2734375 C353.562503,82.6953146 354.066404,83.1757786 354.464844,83.7148438 C354.863283,84.2539089 355.249998,84.7812474 355.625,85.296875 C356.000002,85.8125026 356.468747,86.1874988 357.03125,86.421875 C357.593753,86.6562512 358.167966,86.8085934 358.753906,86.8789062 C359.339847,86.9492191 359.937497,86.984375 360.546875,86.984375 C361.062503,86.984375 361.589841,86.9726564 362.128906,86.9492188 C362.667971,86.9257811 363.19531,86.9140625 363.710938,86.9140625 C364.414066,86.9140625 365.070309,86.9843743 365.679688,87.125 C366.289066,87.2656257 366.828123,87.5703102 367.296875,88.0390625 C367.765627,88.5078148 368.128905,89.1640583 368.386719,90.0078125 C368.644533,90.8515667 368.773438,91.9999927 368.773438,93.453125 C368.773438,95.7031362 368.539065,98.199205 368.070312,100.941406 C367.60156,103.683607 367.08594,106.496079 366.523438,109.378906 C365.960935,112.261733 365.445315,115.144517 364.976562,118.027344 C364.50781,120.910171 364.273438,123.640612 364.273438,126.21875 C364.273438,128.421886 364.472654,130.144525 364.871094,131.386719 C365.269533,132.628912 366.124993,133.25 367.4375,133.25 C368.42188,133.25 369.45312,133.003909 370.53125,132.511719 C371.60938,132.019529 372.699213,131.375004 373.800781,130.578125 C374.902349,129.781246 376.003901,128.878911 377.105469,127.871094 C378.207037,126.863276 379.249995,125.820318 380.234375,124.742188 C382.531261,122.210925 384.851551,119.351578 387.195312,116.164062 L390.570312,131.773438 Z M330.523438,126.21875 C330.523438,127.390631 330.605468,128.527338 330.769531,129.628906 C330.933595,130.730474 331.22656,131.714839 331.648438,132.582031 C332.070315,133.449223 332.632809,134.152341 333.335938,134.691406 C334.039066,135.230471 334.929682,135.5 336.007812,135.5 C337.742196,135.5 339.312493,134.750008 340.71875,133.25 C342.125007,131.749992 343.343745,129.945323 344.375,127.835938 C345.406255,125.726552 346.238278,123.546886 346.871094,121.296875 C347.503909,119.046864 347.914062,117.171883 348.101562,115.671875 L352.390625,95 C350.46874,95 348.593759,95.4804639 346.765625,96.4414062 C344.937491,97.4023486 343.214852,98.7031168 341.597656,100.34375 C339.980461,101.984383 338.492194,103.859364 337.132812,105.96875 C335.773431,108.078136 334.601567,110.292957 333.617188,112.613281 C332.632808,114.933605 331.871096,117.265613 331.332031,119.609375 C330.792966,121.953137 330.523438,124.15624 330.523438,126.21875 Z" id="Combined-Shape" fill="#0E1C36"></path>
        <path d="M405.054688,92.3984375 C407.679701,89.1171711 410.08202,86.4804787 412.261719,84.4882812 C414.441417,82.4960838 416.609364,81.5 418.765625,81.5 C421.531264,81.5 423.992177,82.1093689 426.148438,83.328125 C428.304698,84.5468811 430.132805,86.1640524 431.632812,88.1796875 C433.13282,90.1953226 434.281246,92.5156119 435.078125,95.140625 C435.875004,97.7656381 436.273438,100.507798 436.273438,103.367188 C436.273438,105.757824 436.179688,108.019521 435.992188,110.152344 C435.804687,112.285167 435.464846,114.371084 434.972656,116.410156 C434.480466,118.449229 433.800786,120.476552 432.933594,122.492188 C432.066402,124.507823 430.929695,126.593739 429.523438,128.75 C431.210946,127.76562 432.921866,126.804692 434.65625,125.867188 C436.390634,124.929683 438.13671,123.898443 439.894531,122.773438 C441.652353,121.648432 443.421866,120.394538 445.203125,119.011719 C446.984384,117.628899 448.812491,116.000009 450.6875,114.125 L456.101562,125.726562 C453.523425,128.070324 450.957044,130.109366 448.402344,131.84375 C445.847643,133.578134 443.22267,135.089837 440.527344,136.378906 C437.832018,137.667975 435.019546,138.781245 432.089844,139.71875 C429.160142,140.656255 426.054704,141.499996 422.773438,142.25 C421.976559,143.046879 420.886726,143.843746 419.503906,144.640625 C418.121087,145.437504 416.750007,146.164059 415.390625,146.820312 C413.843742,147.570316 412.179696,148.296871 410.398438,149 L408.640625,149 C404.65623,149 400.707051,148.449224 396.792969,147.347656 C392.878887,146.246088 389.328141,145.015632 386.140625,143.65625 C382.437481,142.109367 378.898454,140.328135 375.523438,138.3125 C375.664063,134.515606 375.94531,130.226586 376.367188,125.445312 C376.742189,121.320292 377.257809,116.457059 377.914062,110.855469 C378.570316,105.253878 379.460932,99.007847 380.585938,92.1171875 C381.335941,87.5234145 382.273432,82.402372 383.398438,76.7539062 C384.523443,71.1054405 385.847649,65.3867477 387.371094,59.5976562 C388.894539,53.8085648 390.605459,48.1836211 392.503906,42.7226562 C394.402353,37.2616914 396.511707,32.3984588 398.832031,28.1328125 C401.152355,23.8671662 403.68358,20.4453254 406.425781,17.8671875 C409.167982,15.2890496 412.132797,14 415.320312,14 C418.88283,14 421.742177,14.6093689 423.898438,15.828125 C426.054698,17.0468811 427.718744,18.6992083 428.890625,20.7851562 C430.062506,22.8711042 430.835936,25.3202984 431.210938,28.1328125 C431.585939,30.9453266 431.773438,33.9452966 431.773438,37.1328125 C431.773438,41.5859598 430.941415,46.1796638 429.277344,50.9140625 C427.613273,55.6484612 425.445326,60.3710702 422.773438,65.0820312 C420.101549,69.7929923 417.113298,74.398415 413.808594,78.8984375 C410.50389,83.39846 407.210954,87.6406051 403.929688,91.625 L405.054688,92.3984375 Z M411.382812,97.53125 C409.742179,97.53125 408.101571,97.8710904 406.460938,98.5507812 C404.820304,99.2304721 403.296882,100.285149 401.890625,101.714844 C400.484368,103.144538 399.242193,104.972645 398.164062,107.199219 C397.085932,109.425792 396.289065,112.109359 395.773438,115.25 C395.35156,117.781263 395.000001,120.113271 394.71875,122.246094 C394.437499,124.378917 394.203126,126.265617 394.015625,127.90625 C393.828124,129.781259 393.664063,131.539054 393.523438,133.179688 C395.07032,133.64844 396.61718,134.046873 398.164062,134.375 C399.523444,134.656251 400.953118,134.914061 402.453125,135.148438 C403.953132,135.382814 405.382806,135.5 406.742188,135.5 C408.335945,135.5 409.789056,135.031255 411.101562,134.09375 C412.414069,133.156245 413.585932,131.902352 414.617188,130.332031 C415.648443,128.761711 416.539059,126.96876 417.289062,124.953125 C418.039066,122.93749 418.648435,120.839855 419.117188,118.660156 C419.58594,116.480458 419.937499,114.324229 420.171875,112.191406 C420.406251,110.058583 420.523438,108.101571 420.523438,106.320312 C420.523438,105.148432 420.394533,104.035162 420.136719,102.980469 C419.878905,101.925776 419.41016,101.000004 418.730469,100.203125 C418.050778,99.406246 417.113287,98.7617212 415.917969,98.2695312 C414.72265,97.7773413 413.210947,97.53125 411.382812,97.53125 Z M418.273438,33.125 C418.273438,32.9374991 418.238282,32.5390655 418.167969,31.9296875 C418.097656,31.3203095 417.933595,30.6875033 417.675781,30.03125 C417.417967,29.3749967 417.05469,28.7890651 416.585938,28.2734375 C416.117185,27.7578099 415.484379,27.5 414.6875,27.5 C413.749995,27.5 412.777349,28.1679621 411.769531,29.5039062 C410.761714,30.8398504 409.76563,32.6445199 408.78125,34.9179688 C407.79687,37.1914176 406.835942,39.8163914 405.898438,42.7929688 C404.960933,45.7695461 404.046879,48.8867025 403.15625,52.1445312 C402.265621,55.40236 401.433598,58.7187331 400.660156,62.09375 C399.886715,65.4687669 399.183597,68.6679536 398.550781,71.6914062 C397.917966,74.7148589 397.36719,77.4804562 396.898438,79.9882812 C396.429685,82.4961063 396.054689,84.5234298 395.773438,86.0703125 C397.039069,83.6328003 398.457023,81.1015756 400.027344,78.4765625 C401.597664,75.8515494 403.17968,73.1211079 404.773438,70.2851562 C406.367195,67.4492046 407.925774,64.5429836 409.449219,61.5664062 C410.972664,58.5898289 412.355463,55.5429843 413.597656,52.4257812 C414.83985,49.3085782 415.87109,46.1445473 416.691406,42.9335938 C417.511723,39.7226402 418.039061,36.4531416 418.273438,33.125 Z" id="Combined-Shape" fill="#0E1C36"></path>
        <path d="M443.75,120.5 C446.375013,118.249989 448.507804,116.375008 450.148438,114.875 C451.789071,113.374992 453.195307,112.003912 454.367188,110.761719 C455.539068,109.519525 456.605464,108.265631 457.566406,107 C458.527349,105.734369 459.664056,104.234384 460.976562,102.5 C462.289069,100.765616 463.882803,98.6445438 465.757812,96.1367188 C467.632822,93.6288937 470.070298,90.5000187 473.070312,86.75 C473.679691,85.9062458 474.359371,85.0859415 475.109375,84.2890625 C475.859379,83.4921835 476.691402,82.7773469 477.605469,82.1445312 C478.519536,81.5117156 479.527338,80.9960957 480.628906,80.5976562 C481.730474,80.1992168 482.960931,80 484.320312,80 C486.570324,80 488.304681,80.2460913 489.523438,80.7382812 C490.742194,81.2304712 491.63281,81.8281215 492.195312,82.53125 C492.757815,83.2343785 493.085937,83.9726524 493.179688,84.7460938 C493.273438,85.5195351 493.320312,86.1874972 493.320312,86.75 C493.320312,87.8750056 492.875004,89.1171807 491.984375,90.4765625 C491.093746,91.8359443 490.10938,93.1484312 489.03125,94.4140625 C487.95312,95.6796938 486.933599,96.8398385 485.972656,97.8945312 C485.011714,98.949224 484.460938,99.7343724 484.320312,100.25 C484.320312,101.703132 484.42578,103.027338 484.636719,104.222656 C484.847657,105.417975 485.128904,106.589838 485.480469,107.738281 C485.832033,108.886724 486.195311,110.105462 486.570312,111.394531 C486.945314,112.6836 487.308592,114.171867 487.660156,115.859375 C488.011721,117.546883 488.292968,119.492176 488.503906,121.695312 C488.714845,123.898449 488.820312,126.499985 488.820312,129.5 C490.507821,128.374994 492.324209,127.355473 494.269531,126.441406 C496.214853,125.527339 498.242177,124.57813 500.351562,123.59375 C502.460948,122.60937 504.628895,121.519537 506.855469,120.324219 C509.082042,119.1289 511.320301,117.687508 513.570312,116 L513.640625,131.75 C510.73436,134.000011 507.371113,136.109365 503.550781,138.078125 C499.73045,140.046885 495.722677,141.781242 491.527344,143.28125 C487.33201,144.781258 483.089865,145.964839 478.800781,146.832031 C474.511697,147.699223 470.445332,148.132812 466.601562,148.132812 C463.835924,148.132812 461.257824,147.875003 458.867188,147.359375 C456.476551,146.843747 454.378915,146.035162 452.574219,144.933594 C450.769522,143.832026 449.304693,142.390634 448.179688,140.609375 C447.054682,138.828116 446.375001,136.671888 446.140625,134.140625 C445.484372,134.281251 444.839847,134.375 444.207031,134.421875 C443.574216,134.46875 442.953128,134.492188 442.34375,134.492188 C441.593746,134.492188 440.890628,134.46875 440.234375,134.421875 C439.578122,134.375 439.015627,134.19922 438.546875,133.894531 C438.078123,133.589842 437.703126,133.09766 437.421875,132.417969 C437.140624,131.738278 437,130.765631 437,129.5 C437,128.374994 437.281247,127.332036 437.84375,126.371094 C438.406253,125.410151 439.062496,124.554691 439.8125,123.804688 C440.562504,123.054684 441.312496,122.39844 442.0625,121.835938 C442.812504,121.273435 443.374998,120.828127 443.75,120.5 Z M452.75,129.5 C453.312503,129.5 453.93359,129.851559 454.613281,130.554688 C455.292972,131.257816 456.078121,132.031246 456.96875,132.875 C457.859379,133.718754 458.890619,134.492184 460.0625,135.195312 C461.234381,135.898441 462.570305,136.25 464.070312,136.25 C465.898447,136.25 467.41015,135.945316 468.605469,135.335938 C469.800787,134.726559 470.749996,133.917974 471.453125,132.910156 C472.156254,131.902339 472.648436,130.730475 472.929688,129.394531 C473.210939,128.058587 473.351562,126.66407 473.351562,125.210938 C473.351562,123.945306 473.269532,122.656257 473.105469,121.34375 C472.941405,120.031243 472.73047,118.77735 472.472656,117.582031 C472.214842,116.386713 471.933595,115.261724 471.628906,114.207031 C471.324217,113.152338 471.054689,112.250004 470.820312,111.5 L452.75,129.5 Z" id="Combined-Shape" fill="#0E1C36"></path>
    </g>
</svg>