<?xml version="1.0" encoding="UTF-8"?>
<svg width="1025px" height="224px" viewBox="0 0 1025 224" version="1.1" xmlns="http://www.w3.org/2000/svg" xmlns:xlink="http://www.w3.org/1999/xlink">
    <!-- Generator: Sketch 41.2 (35397) - http://www.bohemiancoding.com/sketch -->
    <title>Combined Shape</title>
    <desc>Created with Sketch.</desc>
    <defs></defs>
    <g id="Page-1" stroke="none" stroke-width="1" fill="none" fill-rule="evenodd">
        <path d="M569.081605,69.8469805 L542.978174,69.8469805 L492.013862,220.735701 L519.118477,220.735701 L569.726446,70.9019963 L614.656532,144.411464 L567.590126,220.807084 L613.678891,220.807084 L662.002263,144.411464 L614.796195,69.6917995 L568.986756,69.6917995 L569.081605,69.8469805 Z M22.4857309,220.807084 L22.4857309,98.322699 L0,98.322699 L0,69.6917995 L22.4857309,69.6917995 L22.4857309,52.9322485 C22.4857309,35.9863956 27.3738844,22.9280427 37.150338,13.7567981 C46.9267916,4.58555351 60.6601752,0 78.3509008,0 C81.7959368,0 85.310752,0.256046135 88.8954516,0.768146086 C92.4801513,1.28024604 96.413951,2.0018306 100.696969,2.93292142 L97.2053956,33.2397761 C94.9707777,32.8673398 92.806024,32.5414629 90.7110696,32.2621356 C88.6161153,31.9828084 86.1720386,31.8431468 83.3787661,31.8431468 C76.7680213,31.8431468 71.7634832,33.6587467 68.3650017,37.2900009 C64.9665202,40.9212551 63.2673049,46.1352855 63.2673049,52.9322485 L63.2673049,69.6917995 L92.3171933,69.6917995 L92.3171933,98.322699 L63.2673049,98.322699 L63.2673049,220.807084 L22.4857309,220.807084 Z M196.241927,198.461016 C191.586473,206.561506 185.674135,212.799721 178.504736,217.175848 C171.335337,221.551975 163.002199,223.740005 153.505072,223.740005 C137.583419,223.740005 125.130266,218.33976 116.14524,207.539106 C107.160214,196.738453 102.667768,179.979069 102.667768,157.260453 L102.667768,69.6917995 L143.309679,69.6917995 L143.309679,157.539779 C143.309679,170.761269 145.102002,179.815991 148.686702,184.704218 C152.271401,189.592445 157.834585,192.036522 165.376421,192.036522 C171.894057,192.036522 177.480518,190.98906 182.135972,188.894106 C186.791426,186.799151 190.608841,183.703321 193.588332,179.606521 L193.588332,69.6917995 L234.369906,69.6917995 L234.369906,220.807084 L200.571478,220.807084 L196.241927,198.461016 Z M294.440482,69.6917995 L296.2561,91.3395528 C301.28399,83.611499 307.475651,77.6060533 314.831269,73.3230355 C322.186886,69.0400177 330.426916,66.898541 339.551606,66.898541 C354.821496,66.898541 366.73928,71.8099714 375.305315,81.6329795 C383.871351,91.4559877 388.154304,106.981694 388.154304,128.210565 L388.154304,220.807084 L347.233067,220.807084 L347.233067,128.350228 C347.233067,117.549574 345.347637,109.891467 341.576719,105.375677 C337.805801,100.859886 332.149509,98.6020249 324.607673,98.6020249 C318.555583,98.6020249 313.225168,99.742594 308.616269,102.023767 C304.007369,104.304939 300.213231,107.447323 297.23374,111.451014 L297.23374,220.807084 L256.452166,220.807084 L256.452166,69.6917995 L294.440482,69.6917995 Z M443.848775,69.6917995 L489.93754,69.6917995 L444.407427,144.411464 L491.473832,220.807084 L445.52473,220.807084 L397.061695,144.411464 L443.848775,69.6917995 Z M713.925835,220.807084 L673.144261,220.807084 L673.144261,69.6917995 L713.925835,69.6917995 L713.925835,220.807084 Z M713.925835,33.5191019 L673.144261,33.5191019 L673.144261,2.93292142 L713.925835,2.93292142 L713.925835,33.5191019 Z M733.214837,143.852813 C733.214837,121.320415 739.499606,102.861816 752.069332,88.4764628 C764.639058,74.0911097 782.050195,66.898541 804.303266,66.898541 C826.649445,66.898541 844.15369,74.0678327 856.816525,88.4066314 C869.479361,102.74543 875.810683,121.227306 875.810683,143.852813 L875.810683,146.785734 C875.810683,169.50435 869.502637,188.009502 856.886357,202.301747 C844.270076,216.593991 826.835662,223.740005 804.582592,223.740005 C782.236412,223.740005 764.755444,216.593991 752.139163,202.301747 C739.522883,188.009502 733.214837,169.50435 733.214837,146.785734 L733.214837,143.852813 Z M773.856748,146.785734 C773.856748,160.565878 776.277548,171.622416 781.11922,179.955679 C785.960892,188.288941 793.781938,192.45551 804.582592,192.45551 C815.103918,192.45551 822.808579,188.265664 827.696806,179.885847 C832.585032,171.50603 835.029109,160.472769 835.029109,146.785734 L835.029109,143.852813 C835.029109,130.445105 832.561755,119.504952 827.626974,111.032025 C822.692193,102.559099 814.917701,98.322699 804.303266,98.322699 C793.781939,98.322699 786.077278,102.582376 781.189052,111.101857 C776.300825,119.621338 773.856748,130.538214 773.856748,143.852813 L773.856748,146.785734 Z M930.294742,69.6917995 L932.11036,91.3395528 C937.13825,83.611499 943.329911,77.6060533 950.685529,73.3230355 C958.041146,69.0400177 966.281177,66.898541 975.405867,66.898541 C990.675756,66.898541 1002.59354,71.8099714 1011.15958,81.6329795 C1019.72561,91.4559877 1024.00856,106.981694 1024.00856,128.210565 L1024.00856,220.807084 L983.087328,220.807084 L983.087328,128.350228 C983.087328,117.549574 981.201897,109.891467 977.430979,105.375677 C973.660061,100.859886 968.003769,98.6020249 960.461934,98.6020249 C954.409843,98.6020249 949.079428,99.742594 944.470529,102.023767 C939.861629,104.304939 936.067491,107.447323 933.088,111.451014 L933.088,220.807084 L892.306426,220.807084 L892.306426,69.6917995 L930.294742,69.6917995 Z" id="Combined-Shape" fill="#E91E63"></path>
    </g>
</svg>